# xmcd
#
# Track frame offsets:
#	150
#	27358
#	53410
#	76609
#	102779
#	133988
#	164953
#	188509
#	219733
#	242653
#
# Disc length: 3686 seconds
#
# Revision: 1
# Processed by: cddbd v1.5.2PL0 Copyright (c) Steve Scherf et al.
# Submitted via: audiograbber 1.83.01
#
DISCID=810e640a
DTITLE=Accuser - Diabolic
DYEAR=2013
DGENRE=Metal
TTITLE0=Apocalyptic Decay 
TTITLE1=Diabolic
TTITLE2=Cannibal Insanity
TTITLE3=Deification
TTITLE4=Dethroned 
TTITLE5=Beyond the Blackness 
TTITLE6=Save Your Legend 
TTITLE7=Immortal Aggression 
TTITLE8=Remains of Chaos 
TTITLE9=World Wide Violence
EXTD=
EXTT0=
EXTT1=
EXTT2=
EXTT3=
EXTT4=
EXTT5=
EXTT6=
EXTT7=
EXTT8=
EXTT9=
PLAYORDER=
